# xmcd
#
# Track frame offsets:
#	150
#	18630
#	39357
#	62367
#	79155
#	103900
#	136957
#	161782
#	186880
#	203852
#	228320
#
# Disc length: 3365 seconds
#
# Revision: 1
# Processed by: cddbd v1.5.2PL0 Copyright (c) Steve Scherf et al.
# Submitted via: audiograbber 1.81.03
#
DISCID=900d230b
DTITLE=Micke Mojo Nilsson - Mojo Hojo
DYEAR=1997
DGENRE=Blues
TTITLE0=Watermelon man
TTITLE1=I've got news for you
TTITLE2=Just a little bit
TTITLE3=I need my baby
TTITLE4=Filthy McNasty
TTITLE5=Ain't nobodys business
TTITLE6=That's what love will make you do
TTITLE7=Night train
TTITLE8=Mojo hojo love
TTITLE9=I feel good
TTITLE10=Soundcheck blues
EXTD=Recorded Live on Birka Folkhögskola 16th of March 1997.
EXTT0=Herbie Hancock
EXTT1=Roy Alfred
EXTT2=Rosco Gordon
EXTT3=B.B King, Jules Taub
EXTT4=Horace Silver
EXTT5=Peter Grainger, Everett Robbins
EXTT6=Milton Campbell
EXTT7=Jimmy Forest, Oscar Washington, Lewin Simpkins
EXTT8=Michael Nilsson
EXTT9=James Brown
EXTT10=Michael Nilsson
PLAYORDER=
